{
  "accessors": [
    {
      "bufferView": 2,
      "componentType": 5126,
      "count": 4114,
      "max": [
        5.8712649345397949,
        0.91475796699523926,
        7.4996213912963867
      ],
      "min": [
        -5.8712649345397949,
        -1.583228588104248,
        -6.0432472229003906
      ],
      "type": "VEC3"
    },
    {
      "bufferView": 2,
      "byteOffset": 49368,
      "componentType": 5126,
      "count": 4114,
      "max": [
        1,
        1,
        1
      ],
      "min": [
        -1,
        -1,
        -1
      ],
      "type": "VEC3"
    },
    {
      "bufferView": 1,
      "componentType": 5126,
      "count": 4114,
      "max": [
        2.2563982009887695,
        2.2563982009887695
      ],
      "min": [
        -1.2563982009887695,
        -1.2563982009887695
      ],
      "type": "VEC2"
    },
    {
      "bufferView": 0,
      "componentType": 5125,
      "count": 14736,
      "max": [
        4113
      ],
      "min": [
        0
      ],
      "type": "SCALAR"
    },
    {
      "bufferView": 2,
      "byteOffset": 98736,
      "componentType": 5126,
      "count": 294,
      "max": [
        5.1889166831970215,
        0.43868330121040344,
        7.3463411331176758
      ],
      "min": [
        -5.1889166831970215,
        -1.4192469120025635,
        -6.0432472229003906
      ],
      "type": "VEC3"
    },
    {
      "bufferView": 2,
      "byteOffset": 102264,
      "componentType": 5126,
      "count": 294,
      "max": [
        0.99990737438201904,
        0.99981284141540527,
        0.56747090816497803
      ],
      "min": [
        -0.99990737438201904,
        -0.99981284141540527,
        -0.81352174282073975
      ],
      "type": "VEC3"
    },
    {
      "bufferView": 1,
      "byteOffset": 32912,
      "componentType": 5126,
      "count": 294,
      "max": [
        1.3760251998901367,
        1.53071129322052
      ],
      "min": [
        -0.52117252349853516,
        0.046882003545761108
      ],
      "type": "VEC2"
    },
    {
      "bufferView": 0,
      "byteOffset": 58944,
      "componentType": 5125,
      "count": 1008,
      "max": [
        293
      ],
      "min": [
        0
      ],
      "type": "SCALAR"
    },
    {
      "bufferView": 2,
      "byteOffset": 105792,
      "componentType": 5126,
      "count": 228,
      "max": [
        1.3439558744430542,
        0.91475796699523926,
        3.3275966644287109
      ],
      "min": [
        -1.3439558744430542,
        -0.39442789554595947,
        -1.5877702236175537
      ],
      "type": "VEC3"
    },
    {
      "bufferView": 2,
      "byteOffset": 108528,
      "componentType": 5126,
      "count": 228,
      "max": [
        0.99660283327102661,
        1,
        1
      ],
      "min": [
        -0.99660283327102661,
        -0.91811937093734741,
        -0.74091100692749023
      ],
      "type": "VEC3"
    },
    {
      "bufferView": 1,
      "byteOffset": 35264,
      "componentType": 5126,
      "count": 228,
      "max": [
        1.3133785724639893,
        1.4818596839904785
      ],
      "min": [
        -0.41319835186004639,
        -0.29713326692581177
      ],
      "type": "VEC2"
    },
    {
      "bufferView": 0,
      "byteOffset": 62976,
      "componentType": 5125,
      "count": 960,
      "max": [
        227
      ],
      "min": [
        0
      ],
      "type": "SCALAR"
    },
    {
      "bufferView": 2,
      "byteOffset": 111264,
      "componentType": 5126,
      "count": 140,
      "max": [
        5.7475152015686035,
        -0.29262560606002808,
        -4.0450592041015625
      ],
      "min": [
        -5.7475152015686035,
        -1.2163479328155518,
        -5.7942519187927246
      ],
      "type": "VEC3"
    },
    {
      "bufferView": 2,
      "byteOffset": 112944,
      "componentType": 5126,
      "count": 140,
      "max": [
        0,
        0,
        -1
      ],
      "min": [
        0,
        0,
        -1
      ],
      "type": "VEC3"
    },
    {
      "bufferView": 1,
      "byteOffset": 37088,
      "componentType": 5126,
      "count": 140,
      "max": [
        1.080270528793335,
        1.4547059535980225
      ],
      "min": [
        -0.34922993183135986,
        1.059420108795166
      ],
      "type": "VEC2"
    },
    {
      "bufferView": 0,
      "byteOffset": 66816,
      "componentType": 5125,
      "count": 576,
      "max": [
        139
      ],
      "min": [
        0
      ],
      "type": "SCALAR"
    },
    {
      "bufferView": 2,
      "byteOffset": 114624,
      "componentType": 5126,
      "count": 50,
      "max": [
        1.7993892431259155,
        -0.51742851734161377,
        6.0662713050842285
      ],
      "min": [
        -1.7993892431259155,
        -0.66393601894378662,
        6.0662713050842285
      ],
      "type": "VEC3"
    },
    {
      "bufferView": 2,
      "byteOffset": 115224,
      "componentType": 5126,
      "count": 50,
      "max": [
        0,
        0,
        1
      ],
      "min": [
        0,
        0,
        1
      ],
      "type": "VEC3"
    },
    {
      "bufferView": 1,
      "byteOffset": 38208,
      "componentType": 5126,
      "count": 50,
      "max": [
        0.5648079514503479,
        1.4361510276794434
      ],
      "min": [
        0.54950404167175293,
        1.1345311403274536
      ],
      "type": "VEC2"
    },
    {
      "bufferView": 0,
      "byteOffset": 69120,
      "componentType": 5125,
      "count": 192,
      "max": [
        49
      ],
      "min": [
        0
      ],
      "type": "SCALAR"
    },
    {
      "bufferView": 2,
      "byteOffset": 115824,
      "componentType": 5126,
      "count": 775,
      "max": [
        5.8712649345397949,
        0.30272901058197021,
        1.6152644157409668
      ],
      "min": [
        -5.8712649345397949,
        -1.4508607387542725,
        -2.2100207805633545
      ],
      "type": "VEC3"
    },
    {
      "bufferView": 2,
      "byteOffset": 125124,
      "componentType": 5126,
      "count": 775,
      "max": [
        1,
        0.99342948198318481,
        0.92347699403762817
      ],
      "min": [
        -1,
        -0.99342948198318481,
        -0.79718965291976929
      ],
      "type": "VEC3"
    },
    {
      "bufferView": 1,
      "byteOffset": 38608,
      "componentType": 5126,
      "count": 775,
      "max": [
        1.5585838556289673,
        1.430964469909668
      ],
      "min": [
        -0.54679512977600098,
        -0.052587583661079407
      ],
      "type": "VEC2"
    },
    {
      "bufferView": 0,
      "byteOffset": 69888,
      "componentType": 5125,
      "count": 2616,
      "max": [
        774
      ],
      "min": [
        0
      ],
      "type": "SCALAR"
    },
    {
      "bufferView": 2,
      "byteOffset": 134424,
      "componentType": 5126,
      "count": 756,
      "max": [
        2.5188174247741699,
        0.14619362354278564,
        4.8568224906921387
      ],
      "min": [
        -2.5188174247741699,
        -1.2595031261444092,
        -3.8005461692810059
      ],
      "type": "VEC3"
    },
    {
      "bufferView": 2,
      "byteOffset": 143496,
      "componentType": 5126,
      "count": 756,
      "max": [
        1,
        0.99857109785079956,
        1
      ],
      "min": [
        -1,
        -0.99946844577789307,
        -1
      ],
      "type": "VEC3"
    },
    {
      "bufferView": 1,
      "byteOffset": 44808,
      "componentType": 5126,
      "count": 756,
      "max": [
        1.3775091171264648,
        1.52360999584198
      ],
      "min": [
        -0.27363991737365723,
        -0.4383971095085144
      ],
      "type": "VEC2"
    },
    {
      "bufferView": 0,
      "byteOffset": 80352,
      "componentType": 5125,
      "count": 2496,
      "max": [
        755
      ],
      "min": [
        0
      ],
      "type": "SCALAR"
    },
    {
      "bufferView": 2,
      "byteOffset": 152568,
      "componentType": 5126,
      "count": 36,
      "max": [
        3.6545062065124512,
        0.2478351891040802,
        -1.6283234357833862
      ],
      "min": [
        -3.6545062065124512,
        -1.2947914600372314,
        -2.0813884735107422
      ],
      "type": "VEC3"
    },
    {
      "bufferView": 2,
      "byteOffset": 153000,
      "componentType": 5126,
      "count": 36,
      "max": [
        0.92876899242401123,
        0.45340123772621155,
        -0.34679579734802246
      ],
      "min": [
        -0.92876899242401123,
        0,
        -0.79717493057250977
      ],
      "type": "VEC3"
    },
    {
      "bufferView": 1,
      "byteOffset": 50856,
      "componentType": 5126,
      "count": 36,
      "max": [
        1.4780716896057129,
        2.1159753799438477
      ],
      "min": [
        -1.1314781904220581,
        1.5705307722091675
      ],
      "type": "VEC2"
    },
    {
      "bufferView": 0,
      "byteOffset": 90336,
      "componentType": 5125,
      "count": 96,
      "max": [
        35
      ],
      "min": [
        0
      ],
      "type": "SCALAR"
    }
  ],
  "asset": {
    "extras": {
      "author": "Concept Jelly (https://sketchfab.com/jellyraincoat)",
      "license": "CC-BY-4.0 (http://creativecommons.org/licenses/by/4.0/)",
      "source": "https://sketchfab.com/3d-models/sci-fi-spaceship-f14ac98ce582488daf32c142940fab80",
      "title": "Sci Fi - spaceship"
    },
    "generator": "Sketchfab-8.59.0",
    "version": "2.0"
  },
  "bufferViews": [
    {
      "buffer": 0,
      "byteLength": 90720,
      "byteOffset": 0,
      "name": "floatBufferViews",
      "target": 34963
    },
    {
      "buffer": 0,
      "byteLength": 51144,
      "byteOffset": 90720,
      "byteStride": 8,
      "name": "floatBufferViews",
      "target": 34962
    },
    {
      "buffer": 0,
      "byteLength": 153432,
      "byteOffset": 141864,
      "byteStride": 12,
      "name": "floatBufferViews",
      "target": 34962
    }
  ],
  "buffers": [
    {
      "byteLength": 295296,
      "uri": "scene.bin"
    }
  ],
  "materials": [
    {
      "doubleSided": true,
      "emissiveFactor": [
        0,
        0,
        0
      ],
      "name": "Material",
      "pbrMetallicRoughness": {
        "baseColorFactor": [
          0.136241,
          0.21870800000000001,
          0.674454,
          1
        ],
        "metallicFactor": 0.84727300000000005,
        "roughnessFactor": 1
      }
    },
    {
      "doubleSided": true,
      "emissiveFactor": [
        0,
        0,
        0
      ],
      "name": "Material.002",
      "pbrMetallicRoughness": {
        "baseColorFactor": [
          0.79999999999999993,
          0.0049516600000000001,
          0,
          1
        ],
        "metallicFactor": 0.84727300000000005,
        "roughnessFactor": 0.75636400000000004
      }
    },
    {
      "doubleSided": true,
      "emissiveFactor": [
        0,
        0,
        0
      ],
      "name": "Material.003",
      "pbrMetallicRoughness": {
        "baseColorFactor": [
          0.013940953848668617,
          0.0094037964080777442,
          0.0094037964080777442,
          1
        ],
        "metallicFactor": 0.82800608828006084,
        "roughnessFactor": 0.038051750380517557
      }
    },
    {
      "doubleSided": true,
      "emissiveFactor": [
        1,
        0.073893343931578426,
        0.54942724959301603
      ],
      "name": "Material.004",
      "pbrMetallicRoughness": {
        "baseColorFactor": [
          0.32876712328767121,
          0.32876712328767121,
          0.32876712328767121,
          1
        ],
        "metallicFactor": 1,
        "roughnessFactor": 1
      }
    },
    {
      "doubleSided": true,
      "emissiveFactor": [
        1,
        0.38411499999999982,
        0.016265499999999985
      ],
      "name": "Material.005",
      "pbrMetallicRoughness": {
        "baseColorFactor": [
          1,
          1,
          1,
          1
        ],
        "metallicFactor": 1,
        "roughnessFactor": 1
      }
    },
    {
      "doubleSided": true,
      "emissiveFactor": [
        0,
        0,
        0
      ],
      "name": "Material.006",
      "pbrMetallicRoughness": {
        "baseColorFactor": [
          0.47609999999999997,
          0.39856500000000006,
          0.019471199999999987,
          1
        ],
        "metallicFactor": 0.82800608828006084,
        "roughnessFactor": 0.24363599999999996
      }
    },
    {
      "doubleSided": true,
      "emissiveFactor": [
        0,
        0,
        0
      ],
      "name": "Material.007",
      "pbrMetallicRoughness": {
        "baseColorFactor": [
          0.81930244403148555,
          0.7942526979233393,
          0.036551857286087237,
          1
        ],
        "metallicFactor": 1,
        "roughnessFactor": 0.29984779299847797
      }
    },
    {
      "doubleSided": true,
      "emissiveFactor": [
        0,
        0,
        0
      ],
      "name": "Material.008",
      "pbrMetallicRoughness": {
        "baseColorFactor": [
          0,
          0,
          0,
          1
        ],
        "metallicFactor": 0,
        "roughnessFactor": 0.5
      }
    }
  ],
  "meshes": [
    {
      "primitives": [
        {
          "attributes": {
            "NORMAL": 1,
            "POSITION": 0,
            "TEXCOORD_0": 2
          },
          "indices": 3,
          "material": 0,
          "mode": 4
        }
      ]
    },
    {
      "primitives": [
        {
          "attributes": {
            "NORMAL": 5,
            "POSITION": 4,
            "TEXCOORD_0": 6
          },
          "indices": 7,
          "material": 1,
          "mode": 4
        }
      ]
    },
    {
      "primitives": [
        {
          "attributes": {
            "NORMAL": 9,
            "POSITION": 8,
            "TEXCOORD_0": 10
          },
          "indices": 11,
          "material": 2,
          "mode": 4
        }
      ]
    },
    {
      "primitives": [
        {
          "attributes": {
            "NORMAL": 13,
            "POSITION": 12,
            "TEXCOORD_0": 14
          },
          "indices": 15,
          "material": 3,
          "mode": 4
        }
      ]
    },
    {
      "primitives": [
        {
          "attributes": {
            "NORMAL": 17,
            "POSITION": 16,
            "TEXCOORD_0": 18
          },
          "indices": 19,
          "material": 4,
          "mode": 4
        }
      ]
    },
    {
      "primitives": [
        {
          "attributes": {
            "NORMAL": 21,
            "POSITION": 20,
            "TEXCOORD_0": 22
          },
          "indices": 23,
          "material": 5,
          "mode": 4
        }
      ]
    },
    {
      "primitives": [
        {
          "attributes": {
            "NORMAL": 25,
            "POSITION": 24,
            "TEXCOORD_0": 26
          },
          "indices": 27,
          "material": 6,
          "mode": 4
        }
      ]
    },
    {
      "primitives": [
        {
          "attributes": {
            "NORMAL": 29,
            "POSITION": 28,
            "TEXCOORD_0": 30
          },
          "indices": 31,
          "material": 7,
          "mode": 4
        }
      ]
    }
  ],
  "nodes": [
    {
      "children": [
        1
      ],
      "name": "RootNode (gltf orientation matrix)",
      "rotation": [
        -0.70710678118654746,
        -0,
        -0,
        0.70710678118654757
      ]
    },
    {
      "children": [
        2
      ],
      "name": "RootNode (model correction matrix)"
    },
    {
      "children": [
        3
      ],
      "name": "root"
    },
    {
      "children": [
        4
      ],
      "matrix": [
        1,
        0,
        0,
        0,
        0,
        2.2204460492503131e-16,
        1,
        0,
        0,
        -1,
        2.2204460492503131e-16,
        0,
        0,
        0,
        0,
        1
      ],
      "name": "GLTF_SceneRootNode"
    },
    {
      "children": [
        5,
        6,
        7,
        8,
        9,
        10,
        11,
        12
      ],
      "name": "Cube_0"
    },
    {
      "mesh": 0,
      "name": ""
    },
    {
      "mesh": 1,
      "name": ""
    },
    {
      "mesh": 2,
      "name": ""
    },
    {
      "mesh": 3,
      "name": ""
    },
    {
      "mesh": 4,
      "name": ""
    },
    {
      "mesh": 5,
      "name": ""
    },
    {
      "mesh": 6,
      "name": ""
    },
    {
      "mesh": 7,
      "name": ""
    }
  ],
  "scene": 0,
  "scenes": [
    {
      "name": "OSG_Scene",
      "nodes": [
        0
      ]
    }
  ]
}

